<svg xmlns="http://www.w3.org/2000/svg" viewBox="0 0 512 512">
  <rect width="512" height="512" rx="112" fill="#2f7d5b"/>
  <circle cx="256" cy="242" r="132" fill="#f7faf7"/>
  <path d="M192 230c10-52 49-86 99-86 42 0 78 23 95 59-21-13-47-15-72-5-37 15-59 51-58 89-38-1-69-22-64-57Z" fill="#dff4e8"/>
  <path d="M153 310c35 41 91 62 147 50 49-11 86-45 103-89-38 35-99 42-147 12-32-20-52-50-64-88-56 22-76 77-39 115Z" fill="#ef6f5e"/>
  <path d="M203 354h106c16 0 29 13 29 29s-13 29-29 29H203c-16 0-29-13-29-29s13-29 29-29Z" fill="#f4bf45"/>
  <path d="M256 93c0 31-22 57-52 63 0-35 18-63 52-63Z" fill="#dff4e8"/>
</svg>
