<svg xmlns="http://www.w3.org/2000/svg" viewBox="0 0 512 512">
  <rect width="512" height="512" fill="#2f7d5b"/>
  <circle cx="256" cy="256" r="150" fill="#f7faf7"/>
  <path d="M187 246c11-58 55-96 111-96 48 0 88 26 107 67-24-15-53-17-81-6-42 17-67 58-65 101-43-1-78-25-72-66Z" fill="#dff4e8"/>
  <path d="M143 337c40 46 103 70 166 56 55-12 97-51 116-101-43 39-112 47-166 13-36-22-59-56-72-99-64 25-86 88-44 131Z" fill="#ef6f5e"/>
  <path d="M196 385h120c18 0 33 15 33 33s-15 33-33 33H196c-18 0-33-15-33-33s15-33 33-33Z" fill="#f4bf45"/>
</svg>
